<svg xmlns="http://www.w3.org/2000/svg" viewBox="0 0 256 256">
  <defs>
    <style>
      .bg { fill: #0f766e; }
      .rim { fill: none; stroke: #ffffff; stroke-width: 10; }
      .line { fill: none; stroke: #ffffff; stroke-width: 16; stroke-linecap: round; stroke-linejoin: round; }
      .gear { fill: #5eead4; stroke: #ffffff; stroke-width: 10; stroke-linejoin: round; }
      .center { fill: #0f766e; stroke: #ffffff; stroke-width: 12; }
      .play { fill: #fbbf24; }
      .head { fill: #ffffff; }
      @media (prefers-color-scheme: dark) {
        .bg { fill: #ccfbf1; }
        .rim { stroke: #0f172a; }
        .line { stroke: #0f172a; }
        .gear { fill: #14b8a6; stroke: #0f172a; }
        .center { fill: #ccfbf1; stroke: #0f172a; }
        .play { fill: #f59e0b; }
        .head { fill: #0f172a; }
      }
    </style>
  </defs>
  <circle class="bg" cx="128" cy="128" r="114"/>
  <circle class="rim" cx="128" cy="128" r="114"/>
  <path class="line" d="M 44.86 80.00 A 96.00 96.00 0 0 1 215.70 88.95"/>
  <path class="line" d="M 211.14 176.00 A 96.00 96.00 0 0 1 40.30 167.05"/>
  <polygon class="head" points="215.70,88.95 196.54,77.78 220.22,67.24"/>
  <polygon class="head" points="40.30,167.05 59.46,178.22 35.78,188.76"/>
  <path class="gear" d="M 113.17 82.35 L 116.54 63.00 L 139.46 63.00 L 142.83 82.35 L 149.79 85.23 L 165.86 73.94 L 182.06 90.14 L 170.77 106.21 L 173.65 113.17 L 193.00 116.54 L 193.00 139.46 L 173.65 142.83 L 170.77 149.79 L 182.06 165.86 L 165.86 182.06 L 149.79 170.77 L 142.83 173.65 L 139.46 193.00 L 116.54 193.00 L 113.17 173.65 L 106.21 170.77 L 90.14 182.06 L 73.94 165.86 L 85.23 149.79 L 82.35 142.83 L 63.00 139.46 L 63.00 116.54 L 82.35 113.17 L 85.23 106.21 L 73.94 90.14 L 90.14 73.94 L 106.21 85.23 Z"/>
  <circle class="center" cx="128" cy="128" r="30"/>
  <polygon class="play" points="120,108 120,148 154,128"/>
</svg>